<svg height="512" viewBox="0 0 512 512" width="512" xmlns="http://www.w3.org/2000/svg"><g id="Flat"><g fill="#bfbfbd"><path d="m392 280h16v144h-16z"/><path d="m328 344h144v16h-144z"/><path d="m392 280h16v144.001h-16z" transform="matrix(.707 -.707 .707 .707 -131.744 385.944)"/><path d="m328 344h144.001v16h-144.001z" transform="matrix(.707 -.707 .707 .707 -131.743 385.964)"/></g><path d="m400 264a88 88 0 1 0 88 88 88 88 0 0 0 -88-88zm0 144a56 56 0 1 1 56-56 56 56 0 0 1 -56 56z" fill="#4d5e78"/><path d="m216 72a16 16 0 0 0 -15.984 16.724c.384 8.635 7.842 15.276 16.484 15.276h47.511c.03 0 0-.024 0-.054v-31.892c0-.03.03-.054 0-.054z" fill="#92563a"/><path d="m333.16 152h-31.53l-2.97-8-14.85-39.96c0-.03-.02-.04-.05-.04h-19.75c-.03 0 0-31.95 0-31.95 0-.03 20.96-.05 20.96-.05a28.581 28.581 0 0 1 27.03 19.28l18.37 52.72z" fill="#d6d6d4"/><path d="m411.27 345.22-27.95-49.22-47.37-136-2.79-8h-31.53l2.97 8 12.32 33.14-120.54 53.65-14.04-41.91-30.34 10.16 43.2 128.96 28.44 7.77 112.36-95.77 18.84 56 30.92 48.57a14.891 14.891 0 0 0 25.51-15.35zm-192.37-31.2-12.31-36.75 120.11-53.46.03.1z" fill="#f35244"/><path d="m360 120v32a8 8 0 0 1 -8 8h-47.4l-2.97-8-2.97-8h45.34v-24z" fill="#e0e0de"/><path d="m99.6 190.38a33.087 33.087 0 0 0 21.635 23.363l10.127 3.376a52.529 52.529 0 0 0 40.1-2.85 59.374 59.374 0 0 1 26.556-6.269h9.982a16 16 0 0 0 16-16 16 16 0 0 0 -16-16h-57.632a21.036 21.036 0 0 1 -11.667-3.532l-7.034-4.69a21.033 21.033 0 0 0 -23.334 0 21.033 21.033 0 0 0 -8.733 22.602z" fill="#7a432a"/><path d="m104 280h16v144h-16z" fill="#bfbfbd"/><path d="m40 344h144v16h-144z" fill="#bfbfbd"/><path d="m104 280h16v144.001h-16z" fill="#bfbfbd" transform="matrix(.707 -.707 .707 .707 -216.098 182.296)"/><path d="m40 344h144.001v16h-144.001z" fill="#bfbfbd" transform="matrix(.707 -.707 .707 .707 -216.105 182.309)"/><path d="m112 264a88 88 0 1 0 88 88 88 88 0 0 0 -88-88zm0 144a56 56 0 1 1 56-56 56 56 0 0 1 -56 56z" fill="#4d5e78"/><path d="m216 296a39.883 39.883 0 0 0 -15.374 3.066l-95.714 30-.1.033-.306.1v.007a24 24 0 0 0 7.494 46.794h104a40 40 0 0 0 0-80z" fill="#d6d6d4"/><path d="m208 400h72v32h-72z" fill="#4d5e78"/><path d="m199.728 345.389 24.272 54.611h32l-26.817-67.042a15.987 15.987 0 0 0 -18.722-9.573 15.989 15.989 0 0 0 -10.733 22.004z" fill="#e0e0de"/><path d="m104 344h16v16h-16z" fill="#a3a3a1"/></g></svg>