<svg id="Capa_1" enable-background="new 0 0 510 510" height="512" viewBox="0 0 510 510" width="512" xmlns="http://www.w3.org/2000/svg" xmlns:xlink="http://www.w3.org/1999/xlink"><linearGradient id="lg1"><stop offset="0" stop-color="#ff4974"/><stop offset=".2231" stop-color="#fb3f6c"/><stop offset=".6075" stop-color="#f12357"/><stop offset="1" stop-color="#e4003d"/></linearGradient><linearGradient id="SVGID_1_" gradientUnits="userSpaceOnUse" x1="60.857" x2="186.583" xlink:href="#lg1" y1="320.394" y2="446.121"/><linearGradient id="SVGID_2_" gradientTransform="matrix(-1 0 0 1 284.325 0)" gradientUnits="userSpaceOnUse" x1="-164.818" x2="-39.092" xlink:href="#lg1" y1="320.394" y2="446.121"/><linearGradient id="SVGID_3_" gradientTransform="matrix(1 .002 -.002 1 .881 -.839)" gradientUnits="userSpaceOnUse" x1="416.762" x2="275.886" y1="410.094" y2="356.891"><stop offset="0" stop-color="#a34a9e" stop-opacity="0"/><stop offset="1" stop-color="#343168"/></linearGradient><linearGradient id="lg2"><stop offset="0" stop-color="#d4f7ff"/><stop offset="1" stop-color="#a2e3e9"/></linearGradient><linearGradient id="SVGID_4_" gradientUnits="userSpaceOnUse" x1="233.644" x2="365.953" xlink:href="#lg2" y1="251.906" y2="251.906"/><linearGradient id="lg3"><stop offset="0" stop-color="#a2e3e9" stop-opacity="0"/><stop offset="1" stop-color="#518cd2"/></linearGradient><linearGradient id="SVGID_5_" gradientUnits="userSpaceOnUse" x1="321.45" x2="73.617" xlink:href="#lg3" y1="281.536" y2="165.206"/><linearGradient id="SVGID_6_" gradientUnits="userSpaceOnUse" x1="308.283" x2="197.005" xlink:href="#lg2" y1="266.626" y2="155.348"/><linearGradient id="SVGID_7_" gradientUnits="userSpaceOnUse" x1="210.474" x2="292.965" xlink:href="#lg2" y1="168.817" y2="251.308"/><linearGradient id="SVGID_8_" gradientUnits="userSpaceOnUse" x1="214.541" x2="289.498" y1="172.883" y2="247.841"><stop offset="0" stop-color="#4f4a72"/><stop offset="1" stop-color="#3b395f"/></linearGradient><linearGradient id="SVGID_9_" gradientUnits="userSpaceOnUse" x1="242.534" x2="319.665" xlink:href="#lg1" y1="40.528" y2="40.528"/><linearGradient id="SVGID_10_" gradientUnits="userSpaceOnUse" x1="106.306" x2="381.784" y1="456.476" y2="456.476"><stop offset="0" stop-color="#ffe548"/><stop offset=".1758" stop-color="#ffde50"/><stop offset=".4446" stop-color="#ffca65"/><stop offset=".7709" stop-color="#ffaa87"/><stop offset="1" stop-color="#ff90a4"/></linearGradient><linearGradient id="SVGID_11_" gradientUnits="userSpaceOnUse" x1="253.576" x2="433.418" xlink:href="#lg3" y1="394.965" y2="308.041"/><linearGradient id="lg4"><stop offset="0" stop-color="#a34a9e"/><stop offset=".1551" stop-color="#9b489a"/><stop offset=".4019" stop-color="#84438f"/><stop offset=".7073" stop-color="#5e3b7d"/><stop offset="1" stop-color="#343168"/></linearGradient><linearGradient id="SVGID_12_" gradientUnits="userSpaceOnUse" x1="169.519" x2="194.273" xlink:href="#lg4" y1="478.643" y2="502.217"/><linearGradient id="SVGID_13_" gradientUnits="userSpaceOnUse" x1="199.332" x2="224.085" xlink:href="#lg4" y1="478.643" y2="502.217"/><linearGradient id="SVGID_14_" gradientUnits="userSpaceOnUse" x1="229.145" x2="253.898" xlink:href="#lg4" y1="478.643" y2="502.217"/><linearGradient id="SVGID_15_" gradientUnits="userSpaceOnUse" x1="258.958" x2="283.711" xlink:href="#lg4" y1="478.643" y2="502.217"/><linearGradient id="SVGID_16_" gradientUnits="userSpaceOnUse" x1="288.771" x2="313.524" xlink:href="#lg4" y1="478.643" y2="502.217"/><linearGradient id="SVGID_17_" gradientUnits="userSpaceOnUse" x1="318.583" x2="343.336" xlink:href="#lg4" y1="478.643" y2="502.217"/><path d="m176.857 399.025 4.141-2.055v-113.982l-46.694 23.167c-33.587 16.664-54.832 50.92-54.832 88.414v96.857c0 6.841 5.545 12.386 12.386 12.386 5.208 0 9.859-3.258 11.64-8.152l8.946-24.594c11.42-31.396 34.485-57.193 64.413-72.041z" fill="url(#SVGID_1_)"/><path d="m333.143 399.025-4.141-2.055v-113.982l46.694 23.167c33.587 16.664 54.832 50.92 54.832 88.414v96.857c0 6.841-5.545 12.386-12.386 12.386-5.208 0-9.859-3.258-11.64-8.152l-8.946-24.594c-11.42-31.396-34.485-57.193-64.413-72.041z" fill="url(#SVGID_2_)"/><path d="m356.771 296.601-27.515-13.73-.262 113.982 4.136 2.064c29.894 14.917 52.899 40.767 64.248 72.189l8.89 24.614c1.769 4.898 6.413 8.167 11.621 8.179 6.841.016 12.399-5.517 12.415-12.358l.223-96.856c.022-9.627-1.366-19.04-3.996-28.004z" fill="url(#SVGID_3_)"/><path d="m282.277 16.926c-14.29-23.5-40.069-21.618-54.553 0-39.613 62.555-74.892 138.412-75.002 223.717-.211 77.789 4.65 154.917 14.579 231.362 2.362 18.19 17.852 31.806 36.194 31.806h103.01c18.342 0 33.832-13.616 36.194-31.806 9.929-76.445 14.791-153.573 14.579-231.362-.569-85.568-35.164-160.809-75.001-223.717z" fill="url(#SVGID_4_)"/><path d="m282.276 16.926c-7.162-11.778-17.21-17.178-27.276-16.914v503.8h51.505c18.342 0 33.831-13.616 36.194-31.806 9.929-76.445 14.791-153.573 14.579-231.362-.569-85.569-35.164-160.81-75.002-223.718z" fill="url(#SVGID_5_)"/><circle cx="255" cy="213.343" fill="url(#SVGID_6_)" r="60.128"/><circle cx="255" cy="213.343" fill="url(#SVGID_7_)" r="38.889"/><circle cx="255" cy="213.343" fill="url(#SVGID_8_)" r="35.337"/><path d="m255 81.056c21.234 0 41.407-2.476 59.612-6.925-9.894-20.052-20.895-39.139-32.335-57.204-14.29-23.5-40.069-21.618-54.553 0-11.395 17.994-22.424 37.093-32.367 57.196 18.212 4.453 38.397 6.933 59.643 6.933z" fill="url(#SVGID_9_)"/><path d="m163.169 437.368c1.267 11.561 2.635 23.108 4.132 34.638.158 1.215.378 2.408.65 3.579h174.098c.272-1.171.492-2.364.65-3.579 1.498-11.53 2.866-23.077 4.132-34.638z" fill="url(#SVGID_10_)"/><path d="m153.715 304.759c1.871 56.101 6.391 111.855 13.586 167.247 2.362 18.19 17.852 31.806 36.194 31.806h103.01c18.342 0 33.831-13.616 36.194-31.806 7.195-55.392 11.714-111.146 13.586-167.247z" fill="url(#SVGID_11_)"/><path d="m185.91 510h-10.884c-5.227 0-9.464-4.237-9.464-9.464v-22.931c0-5.227 4.237-9.464 9.464-9.464h10.884c5.227 0 9.464 4.237 9.464 9.464v22.931c0 5.227-4.237 9.464-9.464 9.464z" fill="url(#SVGID_12_)"/><path d="m215.723 510h-10.885c-5.227 0-9.464-4.237-9.464-9.464v-22.931c0-5.227 4.237-9.464 9.464-9.464h10.885c5.227 0 9.464 4.237 9.464 9.464v22.931c0 5.227-4.237 9.464-9.464 9.464z" fill="url(#SVGID_13_)"/><path d="m245.536 510h-10.885c-5.227 0-9.464-4.237-9.464-9.464v-22.931c0-5.227 4.237-9.464 9.464-9.464h10.885c5.227 0 9.464 4.237 9.464 9.464v22.931c0 5.227-4.237 9.464-9.464 9.464z" fill="url(#SVGID_14_)"/><path d="m275.349 510h-10.885c-5.227 0-9.464-4.237-9.464-9.464v-22.931c0-5.227 4.237-9.464 9.464-9.464h10.885c5.227 0 9.464 4.237 9.464 9.464v22.931c0 5.227-4.237 9.464-9.464 9.464z" fill="url(#SVGID_15_)"/><path d="m305.161 510h-10.885c-5.227 0-9.464-4.237-9.464-9.464v-22.931c0-5.227 4.237-9.464 9.464-9.464h10.885c5.227 0 9.464 4.237 9.464 9.464v22.931c.001 5.227-4.237 9.464-9.464 9.464z" fill="url(#SVGID_16_)"/><path d="m334.974 510h-10.884c-5.227 0-9.464-4.237-9.464-9.464v-22.931c0-5.227 4.237-9.464 9.464-9.464h10.884c5.227 0 9.464 4.237 9.464 9.464v22.931c0 5.227-4.237 9.464-9.464 9.464z" fill="url(#SVGID_17_)"/></svg>