<?xml version="1.0" encoding="iso-8859-1"?>
<!-- Generator: Adobe Illustrator 19.0.0, SVG Export Plug-In . SVG Version: 6.00 Build 0)  -->
<svg version="1.1" id="Capa_1" xmlns="http://www.w3.org/2000/svg" xmlns:xlink="http://www.w3.org/1999/xlink" x="0px" y="0px"
	 viewBox="0 0 512 512" style="enable-background:new 0 0 512 512;" xml:space="preserve">
<g>
	<path style="fill:#2FA8CC;" d="M441.379,282.483v97.103H35.31c-9.739-0.029-17.627-7.916-17.655-17.655v-79.448H441.379z"/>
	<circle style="fill:#7F8C8D;" cx="114.759" cy="379.586" r="52.966"/>
	<circle style="fill:#E6E7E8;" cx="114.759" cy="379.586" r="17.655"/>
	<circle style="fill:#7F8C8D;" cx="397.241" cy="379.586" r="52.966"/>
	<circle style="fill:#E6E7E8;" cx="397.241" cy="379.586" r="17.655"/>
	<path style="fill:#2FA8CC;" d="M512,273.655v88.276c-0.029,9.739-7.916,17.627-17.655,17.655h-44.138
		c-0.023-29.243-23.723-52.943-52.966-52.966h-70.621V158.897h70.621V256c0.029,9.739,7.916,17.627,17.655,17.655H512z"/>
	<path style="fill:#285680;" d="M211.862,326.621v52.966h-44.138c-0.023-29.243-23.723-52.943-52.966-52.966H211.862z"/>
	<path style="fill:#547580;" d="M344.276,97.103v229.517H0V97.103c0.028-9.739,7.916-17.627,17.655-17.655h308.966
		C336.36,79.477,344.248,87.364,344.276,97.103z"/>
	<path style="fill:#B0D3F0;" d="M512,245.054v28.601h-97.103c-9.739-0.029-17.626-7.916-17.655-17.655v-97.103h36.193
		c5.057-0.014,9.877,2.139,13.241,5.914l60.822,68.502C510.394,236.538,511.997,240.719,512,245.054L512,245.054z"/>
	<path style="fill:#285680;" d="M397.241,326.621c-29.243,0.023-52.943,23.723-52.966,52.966H291.31v-52.966H397.241z"/>
</g>
<g>
</g>
<g>
</g>
<g>
</g>
<g>
</g>
<g>
</g>
<g>
</g>
<g>
</g>
<g>
</g>
<g>
</g>
<g>
</g>
<g>
</g>
<g>
</g>
<g>
</g>
<g>
</g>
<g>
</g>
</svg>
